<svg xmlns="http://www.w3.org/2000/svg" width="1920" height="812" fill="none" viewBox="0 0 1920 812"><path fill="#f5f2eb" fill-rule="evenodd" d="M1920 0v715.001c-46.74 9.256-102.48-12.591-151.05-3.451-48.13 9.056-90.39 50.725-140.51 58.036-48.64 7.094-103.44-20.36-153.77-14.991-49.02 5.229-95.09 43.495-145.54 47.013-49.29 3.438-101.41-27.939-151.91-26.204C1127.76 777.103 1078.47 812 1028 812c-50.468 0-99.746-34.897-149.208-36.596-50.492-1.735-102.611 29.643-151.897 26.206-50.449-3.518-96.525-41.785-145.542-47.013-50.33-5.369-105.127 22.085-153.766 14.992-50.127-7.311-92.389-48.979-140.52-58.036-49.82-9.374-107.19 13.47-154.651 2.321C83.398 702.36 46.107 657.775 0 644.001V0z" clip-rule="evenodd"/></svg>