<svg xmlns="http://www.w3.org/2000/svg" width="380" height="190" fill="none" viewBox="0 0 380 190"><g filter="url(#a)"><path fill="#fff" d="M40 70c0-27.614 22.386-50 50-50h240c5.523 0 10 4.477 10 10v50c0 27.614-22.386 50-50 50H50c-5.523 0-10-4.477-10-10z" shape-rendering="crispEdges"/><circle cx="95" cy="75" r="25" fill="#fdedef"/><path fill="#ee4a62" d="M101.092 85.438c-.953 0-2.292-.345-4.297-1.465-2.438-1.367-4.324-2.63-6.749-5.048-2.337-2.337-3.475-3.85-5.067-6.747-1.8-3.271-1.493-4.986-1.15-5.719.408-.876 1.01-1.4 1.79-1.92a8.6 8.6 0 0 1 1.398-.742l.135-.06c.242-.108.608-.273 1.072-.097.31.116.586.354 1.018.781.887.875 2.1 2.824 2.547 3.781.3.645.5 1.071.5 1.549 0 .559-.282.99-.623 1.455q-.096.13-.189.252c-.371.488-.453.63-.4.881.11.507.922 2.014 2.256 3.346 1.335 1.331 2.798 2.092 3.307 2.2.262.056.406-.029.91-.413q.109-.084.225-.17c.52-.387.931-.66 1.477-.66h.003c.475 0 .882.205 1.556.545.879.443 2.886 1.64 3.766 2.528.428.432.667.707.784 1.016.176.466.01.83-.098 1.075l-.059.134a8.6 8.6 0 0 1-.746 1.395c-.519.777-1.045 1.378-1.923 1.787a3.3 3.3 0 0 1-1.443.316"/><path fill="#89898b" d="M140.122 66.091q-1.287 0-2.366-.598a4.55 4.55 0 0 1-1.703-1.664q-.624-1.08-.624-2.418t.624-2.405a4.55 4.55 0 0 1 1.703-1.664 4.8 4.8 0 0 1 2.366-.598q1.287 0 2.353.598a4.33 4.33 0 0 1 1.69 1.664q.624 1.065.624 2.405t-.624 2.418a4.45 4.45 0 0 1-1.69 1.664 4.7 4.7 0 0 1-2.353.598m0-2.028q1.092 0 1.742-.728.663-.728.663-1.924 0-1.209-.663-1.924-.65-.728-1.742-.728-1.105 0-1.768.715-.65.715-.65 1.937 0 1.21.65 1.937.663.715 1.768.715M154.58 66h-2.223l-3.718-5.629V66h-2.223v-9.126h2.223l3.718 5.655v-5.655h2.223zm4.224-1.716h2.912V66h-5.135v-9.126h2.223zm6.585-7.41V66h-2.223v-9.126zM175.554 66h-2.223l-3.718-5.629V66h-2.223v-9.126h2.223l3.718 5.655v-5.655h2.223zm4.225-7.345v1.846h2.977v1.716h-2.977v2.002h3.367V66h-5.59v-9.126h5.59v1.781zm11.647 7.436q-1 0-1.794-.325a2.97 2.97 0 0 1-1.274-.962q-.468-.637-.494-1.534h2.366q.052.507.351.78.299.26.78.26.493 0 .78-.221a.78.78 0 0 0 .286-.637.74.74 0 0 0-.234-.559 1.7 1.7 0 0 0-.559-.364 9 9 0 0 0-.936-.325 10 10 0 0 1-1.443-.546 2.7 2.7 0 0 1-.962-.806q-.403-.533-.403-1.391 0-1.274.923-1.989.923-.728 2.405-.728 1.508 0 2.431.728.923.715.988 2.002h-2.405q-.026-.442-.325-.689-.299-.26-.767-.26-.403 0-.65.221-.247.208-.247.611 0 .442.416.689t1.3.533q.884.3 1.43.572.559.273.962.793t.403 1.339q0 .78-.403 1.417-.39.638-1.144 1.014-.754.377-1.781.377m7.27-9.217v5.46q0 .819.403 1.261t1.183.442 1.196-.442.416-1.261v-5.46h2.223v5.447q0 1.222-.52 2.067a3.33 3.33 0 0 1-1.404 1.274q-.871.429-1.95.429t-1.937-.416a3.2 3.2 0 0 1-1.339-1.274q-.494-.858-.494-2.08v-5.447zm14.327 2.938q0 .793-.364 1.456-.364.65-1.118 1.053t-1.872.403h-1.378V66h-2.223v-9.126h3.601q1.092 0 1.846.377t1.131 1.04.377 1.521m-3.523 1.144q.637 0 .949-.299.312-.3.312-.845 0-.546-.312-.845-.312-.3-.949-.299h-1.209v2.288zm12.025-1.144q0 .793-.364 1.456-.363.65-1.118 1.053-.753.403-1.872.403h-1.378V66h-2.223v-9.126h3.601q1.093 0 1.846.377.755.377 1.131 1.04.378.663.377 1.521m-3.523 1.144q.637 0 .949-.299.312-.3.312-.845 0-.546-.312-.845-.312-.3-.949-.299h-1.209v2.288zm9.387 5.135q-1.287 0-2.366-.598a4.54 4.54 0 0 1-1.703-1.664q-.624-1.08-.624-2.418t.624-2.405a4.54 4.54 0 0 1 1.703-1.664 4.8 4.8 0 0 1 2.366-.598q1.287 0 2.353.598a4.34 4.34 0 0 1 1.69 1.664q.624 1.065.624 2.405t-.624 2.418a4.46 4.46 0 0 1-1.69 1.664 4.7 4.7 0 0 1-2.353.598m0-2.028q1.092 0 1.742-.728.663-.728.663-1.924 0-1.209-.663-1.924-.65-.728-1.742-.728-1.105 0-1.768.715-.65.715-.65 1.937 0 1.21.65 1.937.663.715 1.768.715M238.336 66l-1.898-3.445h-.533V66h-2.223v-9.126h3.731q1.08 0 1.833.377.768.377 1.144 1.04.377.65.377 1.456 0 .91-.52 1.625-.507.715-1.508 1.014L240.845 66zm-2.431-5.018h1.378q.612 0 .91-.299.312-.3.312-.845 0-.52-.312-.819-.298-.3-.91-.299h-1.378zm13.213-4.108v1.781H246.7V66h-2.223v-7.345h-2.418v-1.781z"/><path fill="#ef5269" d="M141.18 91.84v-4.29h-4.28v-1.68h4.28v-4.29h1.68v4.29h4.29v1.68h-4.29v4.29zm16.143 3.48q-2.02 0-3.54-1.07-1.52-1.08-2.37-3.01-.84-1.93-.84-4.48 0-2.56.84-4.48.85-1.93 2.37-3 1.52-1.08 3.54-1.08t3.53 1.08q1.52 1.07 2.36 3 .85 1.92.85 4.48 0 2.55-.85 4.48-.84 1.93-2.36 3.01-1.51 1.07-3.53 1.07m0-1.81q1.39 0 2.42-.83t1.6-2.35.57-3.57q0-2.06-.57-3.57-.57-1.52-1.6-2.35t-2.42-.83-2.43.83q-1.03.83-1.6 2.35-.57 1.51-.57 3.57 0 2.05.57 3.57t1.6 2.35q1.04.83 2.43.83M168.506 95V80.5h-1.83v-2h3.86V95zm5.562 0v-.99a134 134 0 0 0 3.8-3.05 52 52 0 0 0 2.69-2.39q1.09-1.06 1.74-1.9.66-.85.94-1.57.29-.72.29-1.4 0-1.01-.48-1.83a3.6 3.6 0 0 0-1.3-1.32 3.45 3.45 0 0 0-1.82-.49q-.99 0-1.81.49a4.1 4.1 0 0 0-1.37 1.37q-.54.88-.71 2.05l-1.77-.7q.171-1.11.66-2.04a5.9 5.9 0 0 1 1.26-1.61 5.7 5.7 0 0 1 1.74-1.05 5.8 5.8 0 0 1 2.11-.38q1.61 0 2.9.72a5.36 5.36 0 0 1 2.04 1.95q.75 1.23.75 2.8 0 .8-.24 1.57-.23.77-.77 1.6-.53.82-1.43 1.76a30 30 0 0 1-2.2 2.05 73 73 0 0 1-3.09 2.5h8.03V95zm23.817 5.2q-.6-.77-1.24-1.91a19 19 0 0 1-1.19-2.6 20 20 0 0 1-.89-3.17 19.4 19.4 0 0 1-.33-3.66q0-1.94.34-3.67t.88-3.18q.55-1.46 1.19-2.6t1.24-1.91l1.26.54q-.69 1.02-1.4 2.61t-1.19 3.66q-.47 2.07-.47 4.55 0 2.42.46 4.48.47 2.06 1.18 3.66t1.42 2.66zm8.751-4.88q-1.47 0-2.65-.53a5.06 5.06 0 0 1-1.92-1.48 4.65 4.65 0 0 1-.93-2.21l1.92-.78q.03.94.49 1.66t1.26 1.12 1.83.4q1.49 0 2.38-.82.89-.83.89-2.16 0-.95-.44-1.71a3.24 3.24 0 0 0-1.16-1.2 3.03 3.03 0 0 0-1.62-.45q-.39 0-.66.09V85.8h.61q.87 0 1.57-.42.699-.42 1.11-1.11.41-.7.41-1.51t-.4-1.46a2.95 2.95 0 0 0-2.55-1.41q-.82 0-1.51.39-.681.39-1.11 1.05t-.48 1.49l-1.67-.66a4.3 4.3 0 0 1 .83-2.05 4.6 4.6 0 0 1 1.7-1.4q1.04-.51 2.27-.51 1.37 0 2.46.6t1.72 1.62.63 2.3q0 .81-.29 1.53-.28.72-.8 1.28a3.9 3.9 0 0 1-1.22.87q.77.29 1.37.87.61.58.95 1.4.35.81.35 1.82 0 1.38-.66 2.48-.65 1.09-1.85 1.72t-2.83.63m15.678-.32v-3.13h-8.26v-.78l8.17-12.59h2.01v11.58h1.92v1.79h-1.92V95zm-5.56-4.92h5.56v-8.8zm17.441 5.23q-1.33 0-2.5-.42a6 6 0 0 1-2.02-1.23 4.95 4.95 0 0 1-1.28-1.93l1.62-.79a3.72 3.72 0 0 0 1.55 1.95q1.13.72 2.62.72 1.2 0 2.08-.46a3.4 3.4 0 0 0 1.38-1.32q.49-.85.49-2 0-1.3-.62-2.24a4 4 0 0 0-1.69-1.46q-1.08-.51-2.48-.51-1.15 0-2.17.42t-1.88 1.23l1.37-8.77h8.42v1.79h-6.71l-.74 4.78q2.01-.99 4.14-.55 1.299.18 2.28.88a4.7 4.7 0 0 1 1.53 1.8q.56 1.1.56 2.53 0 1.81-.81 3.06a5.2 5.2 0 0 1-2.16 1.88q-1.35.64-2.98.64m9.687 4.89-1.26-.54a16 16 0 0 0 1.66-3.2 20 20 0 0 0 1.03-3.68q.36-1.93.36-3.92 0-1.93-.34-3.84a20 20 0 0 0-1.02-3.69 15.8 15.8 0 0 0-1.69-3.29l1.26-.54q1.76 2.31 2.69 5.26.94 2.94.94 6.09 0 3.05-.91 6a17 17 0 0 1-2.72 5.35m17.656-4.88q-1.38 0-2.5-.45a5.8 5.8 0 0 1-1.9-1.25 5.6 5.6 0 0 1-1.62-3.96q0-1.25.54-2.6a9.1 9.1 0 0 1 1.46-2.45l5.1-6.11h2.47l-5.03 5.98q.459-.24.96-.36.51-.13 1.06-.13 1.11 0 2.08.42a5.1 5.1 0 0 1 1.7 1.17 5.5 5.5 0 0 1 1.14 1.8q.42 1.03.42 2.28 0 1.66-.75 2.94a5.27 5.27 0 0 1-2.08 2q-1.32.72-3.05.72m-.08-1.72q1.14 0 2.03-.5a3.74 3.74 0 0 0 1.4-1.39q.51-.88.51-2 0-1.14-.52-2.03a3.7 3.7 0 0 0-1.39-1.41 3.7 3.7 0 0 0-1.94-.52q-1.09 0-1.99.53t-1.44 1.44q-.53.91-.53 2.04 0 1.05.48 1.93.48.87 1.35 1.39t2.04.52m8.164 1.4 8.12-14.71h-7.89V78.5h10.89v.64L272.022 95zm18.753.32q-1.55 0-2.79-.62-1.23-.62-1.95-1.7-.71-1.08-.71-2.45 0-1.48.83-2.65.84-1.17 2.22-1.7a4.13 4.13 0 0 1-2.4-3.76q0-1.21.64-2.16.64-.96 1.72-1.52 1.09-.56 2.44-.56.94 0 1.8.3a5 5 0 0 1 1.54.86q.68.56 1.07 1.34.4.77.4 1.73 0 1.23-.66 2.24a4.23 4.23 0 0 1-1.75 1.53q1.4.54 2.23 1.71t.83 2.65q0 1.36-.72 2.44-.71 1.07-1.95 1.7-1.23.62-2.79.62m0-1.78q.96 0 1.69-.41.74-.42 1.15-1.14t.41-1.62q0-.93-.43-1.65a3 3 0 0 0-1.15-1.13q-.73-.42-1.67-.42a3.37 3.37 0 0 0-1.66.41 3.1 3.1 0 0 0-1.16 1.13q-.42.72-.42 1.65 0 .91.41 1.63.411.72 1.14 1.14.74.41 1.69.41m0-8.12q.82 0 1.46-.36.651-.37 1.02-1 .37-.64.37-1.45a2.8 2.8 0 0 0-.38-1.45 2.7 2.7 0 0 0-1.01-1.02 2.86 2.86 0 0 0-1.46-.37q-.81 0-1.45.37a2.8 2.8 0 0 0-1.02 1.02 2.85 2.85 0 0 0-.37 1.45q0 .81.37 1.45.37.63 1.01 1 .65.36 1.46.36M298.863 95l5.12-6.08q-.85.59-1.99.59-1.11 0-2.1-.42a5.5 5.5 0 0 1-1.74-1.18 5.8 5.8 0 0 1-1.19-1.81 5.9 5.9 0 0 1-.43-2.28q0-1.59.72-2.86a5.3 5.3 0 0 1 2.05-2.02q1.32-.75 3.09-.75 1.79 0 3.15.76a5.46 5.46 0 0 1 2.12 2.05q.77 1.29.77 2.91 0 .77-.13 1.43t-.39 1.26q-.26.59-.64 1.16-.37.56-.85 1.13l-5.09 6.11zm3.62-7.28q.8 0 1.49-.3.7-.31 1.22-.85.53-.55.83-1.26t.3-1.52q0-1.12-.501-1.99a3.5 3.5 0 0 0-1.359-1.36q-.861-.5-1.98-.5-1.12 0-2.01.5-.88.5-1.39 1.37t-.51 1.98.51 2a3.9 3.9 0 0 0 1.4 1.41q.89.52 2 .52"/></g><defs><filter id="a" width="380" height="190" x="0" y="0" color-interpolation-filters="sRGB" filterUnits="userSpaceOnUse"><feFlood flood-opacity="0" result="BackgroundImageFix"/><feColorMatrix in="SourceAlpha" result="hardAlpha" values="0 0 0 0 0 0 0 0 0 0 0 0 0 0 0 0 0 0 127 0"/><feOffset dy="20"/><feGaussianBlur stdDeviation="20"/><feComposite in2="hardAlpha" operator="out"/><feColorMatrix values="0 0 0 0 0 0 0 0 0 0 0 0 0 0 0 0 0 0 0.1 0"/><feBlend in2="BackgroundImageFix" result="effect1_dropShadow_59_4"/><feBlend in="SourceGraphic" in2="effect1_dropShadow_59_4" result="shape"/></filter></defs></svg>